<svg version="1.1" xmlns="http://www.w3.org/2000/svg" xmlns:xlink="http://www.w3.org/1999/xlink" width="1203"
    height="459">
    <defs />
    <g>
        <g transform="translate(-262,-102) scale(1,1)">
            <path fill="#C0C0C0" stroke="none" d="M 279 201 L 652 201 L 652 550 L 279 550" opacity="0.2" />
        </g>
        <g transform="translate(-262,-102) scale(1,1)">
            <path fill="#C0C0C0" stroke="none" d="M 279 201 L 289 191 L 662 191 L 652 201" opacity="0.2" />
        </g>
        <g transform="translate(-262,-102) scale(1,1)">
            <path fill="#C0C0C0" stroke="none" d="M 662 191 L 652 201 L 652 550 L 662 540" opacity="0.2" />
        </g>
        <g transform="translate(-262,-102) scale(1,1)">
            <path fill="#ffffff" stroke="none" d="M 272 194 L 645 194 L 645 543 L 272 543" />
        </g>
        <g transform="translate(-262,-102) scale(1,1)">
            <path fill="#ffffff" stroke="none" d="M 272 194 L 282 184 L 655 184 L 645 194" />
        </g>
        <g transform="translate(-262,-102) scale(1,1)">
            <path fill="#ffffff" stroke="none" d="M 655 184 L 645 194 L 645 543 L 655 533" />
        </g>
        <g transform="translate(-262,-102) scale(1,1)">
            <path fill="none" stroke="#000000" d="M 272 194 L 645 194 L 645 543 L 272 543 L 272 194"
                stroke-miterlimit="10" />
        </g>
        <g transform="translate(-262,-102) scale(1,1)">
            <path fill="none" stroke="#000000" d="M 272 194 L 282 184 L 655 184 L 645 194 L 272 194"
                stroke-miterlimit="10" />
        </g>
        <g transform="translate(-262,-102) scale(1,1)">
            <path fill="none" stroke="#000000" d="M 655 184 L 645 194 L 645 543 L 655 533 L 655 184"
                stroke-miterlimit="10" />
        </g>
        <g transform="translate(-262,-102) scale(1,1)">
            <g>
                <path fill="none" stroke="none" /><text fill="#000000" stroke="none" font-family="Arial"
                    font-size="13px" font-style="normal" font-weight="normal" text-decoration="none"
                    x="432.622314453125" y="210">«mobile»</text>
            </g>
        </g>
        <g transform="translate(-262,-102) scale(1,1)">
            <g>
                <path fill="none" stroke="none" /><text fill="#000000" stroke="none" font-family="Arial"
                    font-size="13px" font-style="normal" font-weight="bold" text-decoration="none" x="438.0400390625"
                    y="225">Device</text>
                <path fill="none" stroke="#000000" d="M 479.9599609375 226.5 L 438.0400390625 226.5"
                    stroke-miterlimit="10" />
            </g>
        </g>
        <g transform="translate(-262,-102) scale(1,1)">
            <path fill="#C0C0C0" stroke="none" d="M 295 321 L 435 321 L 435 485 L 295 485" opacity="0.2" />
        </g>
        <g transform="translate(-262,-102) scale(1,1)">
            <path fill="#C0C0C0" stroke="none" d="M 295 321 L 305 311 L 445 311 L 435 321" opacity="0.2" />
        </g>
        <g transform="translate(-262,-102) scale(1,1)">
            <path fill="#C0C0C0" stroke="none" d="M 445 311 L 435 321 L 435 485 L 445 475" opacity="0.2" />
        </g>
        <g transform="translate(-262,-102) scale(1,1)">
            <path fill="#ffffff" stroke="none" d="M 288 314 L 428 314 L 428 478 L 288 478" />
        </g>
        <g transform="translate(-262,-102) scale(1,1)">
            <path fill="#ffffff" stroke="none" d="M 288 314 L 298 304 L 438 304 L 428 314" />
        </g>
        <g transform="translate(-262,-102) scale(1,1)">
            <path fill="#ffffff" stroke="none" d="M 438 304 L 428 314 L 428 478 L 438 468" />
        </g>
        <g transform="translate(-262,-102) scale(1,1)">
            <path fill="none" stroke="#000000" d="M 288 314 L 428 314 L 428 478 L 288 478 L 288 314"
                stroke-miterlimit="10" />
        </g>
        <g transform="translate(-262,-102) scale(1,1)">
            <path fill="none" stroke="#000000" d="M 288 314 L 298 304 L 438 304 L 428 314 L 288 314"
                stroke-miterlimit="10" />
        </g>
        <g transform="translate(-262,-102) scale(1,1)">
            <path fill="none" stroke="#000000" d="M 438 304 L 428 314 L 428 478 L 438 468 L 438 304"
                stroke-miterlimit="10" />
        </g>
        <g transform="translate(-262,-102) scale(1,1)">
            <g>
                <path fill="none" stroke="none" /><text fill="#000000" stroke="none" font-family="Arial"
                    font-size="13px" font-style="normal" font-weight="bold" text-decoration="none" x="322.391357421875"
                    y="332">Android OS</text>
                <path fill="none" stroke="#000000" d="M 394.608642578125 333.5 L 322.391357421875 333.5"
                    stroke-miterlimit="10" />
            </g>
        </g>
        <g transform="translate(-262,-102) scale(1,1)">
            <path fill="#C0C0C0" stroke="none" d="M 471 321 L 612 321 L 612 486 L 471 486" opacity="0.2" />
        </g>
        <g transform="translate(-262,-102) scale(1,1)">
            <path fill="#C0C0C0" stroke="none" d="M 471 321 L 481 311 L 622 311 L 612 321" opacity="0.2" />
        </g>
        <g transform="translate(-262,-102) scale(1,1)">
            <path fill="#C0C0C0" stroke="none" d="M 622 311 L 612 321 L 612 486 L 622 476" opacity="0.2" />
        </g>
        <g transform="translate(-262,-102) scale(1,1)">
            <path fill="#ffffff" stroke="none" d="M 464 314 L 605 314 L 605 479 L 464 479" />
        </g>
        <g transform="translate(-262,-102) scale(1,1)">
            <path fill="#ffffff" stroke="none" d="M 464 314 L 474 304 L 615 304 L 605 314" />
        </g>
        <g transform="translate(-262,-102) scale(1,1)">
            <path fill="#ffffff" stroke="none" d="M 615 304 L 605 314 L 605 479 L 615 469" />
        </g>
        <g transform="translate(-262,-102) scale(1,1)">
            <path fill="none" stroke="#000000" d="M 464 314 L 605 314 L 605 479 L 464 479 L 464 314"
                stroke-miterlimit="10" />
        </g>
        <g transform="translate(-262,-102) scale(1,1)">
            <path fill="none" stroke="#000000" d="M 464 314 L 474 304 L 615 304 L 605 314 L 464 314"
                stroke-miterlimit="10" />
        </g>
        <g transform="translate(-262,-102) scale(1,1)">
            <path fill="none" stroke="#000000" d="M 615 304 L 605 314 L 605 479 L 615 469 L 615 304"
                stroke-miterlimit="10" />
        </g>
        <g transform="translate(-262,-102) scale(1,1)">
            <g>
                <path fill="none" stroke="none" /><text fill="#000000" stroke="none" font-family="Arial"
                    font-size="13px" font-style="normal" font-weight="bold" text-decoration="none" x="523.802734375"
                    y="332">IOS</text>
                <path fill="none" stroke="#000000" d="M 546.197265625 333.5 L 523.802734375 333.5"
                    stroke-miterlimit="10" />
            </g>
        </g>
        <g transform="translate(-262,-102) scale(1,1)">
            <rect fill="#ffffff" stroke="none" x="480" y="352" width="111" height="111" />
        </g>
        <g transform="translate(-262,-102) scale(1,1)">
            <path fill="none" stroke="#000000" d="M 480 352 L 591 352 L 591 463 L 480 463 L 480 352 Z Z"
                stroke-miterlimit="10" />
        </g>
        <g transform="translate(-262,-102) scale(1,1)">
            <g>
                <path fill="none" stroke="none" /><text fill="#000000" stroke="none" font-family="Arial"
                    font-size="13px" font-style="normal" font-weight="normal" text-decoration="none" x="501"
                    y="375">&lt;&lt;Artifact&gt;&gt;</text>
            </g>
        </g>
        <g transform="translate(-262,-102) scale(1,1)">
            <rect fill="#ffffff" stroke="none" x="304" y="352" width="111" height="111" />
        </g>
        <g transform="translate(-262,-102) scale(1,1)">
            <path fill="none" stroke="#000000" d="M 304 352 L 415 352 L 415 463 L 304 463 L 304 352 Z Z"
                stroke-miterlimit="10" />
        </g>
        <g transform="translate(-262,-102) scale(1,1)">
            <g>
                <path fill="none" stroke="none" /><text fill="#000000" stroke="none" font-family="Arial"
                    font-size="13px" font-style="normal" font-weight="normal" text-decoration="none" x="325"
                    y="375">&lt;&lt;Artifact&gt;&gt;</text>
            </g>
        </g>
        <g transform="translate(-262,-102) scale(1,1)">
            <path fill="#ffffff" stroke="none" d="M 384 384 L 397 384 L 407 394 L 407 422 L 384 422 L 384 384" />
        </g>
        <g transform="translate(-262,-102) scale(1,1)">
            <path fill="none" stroke="#000000" d="M 384 384 L 397 384 L 407 394 L 407 422 L 384 422 L 384 384 L 384 384"
                stroke-miterlimit="10" />
        </g>
        <g transform="translate(-262,-102) scale(1,1)">
            <path fill="none" stroke="#000000" d="M 397 384 L 397 394 L 407 394 L 397 384" stroke-miterlimit="10" />
        </g>
        <g transform="translate(-262,-102) scale(1,1)">
            <path fill="#ffffff" stroke="none" d="M 560 379 L 573 379 L 583 389 L 583 417 L 560 417 L 560 379" />
        </g>
        <g transform="translate(-262,-102) scale(1,1)">
            <path fill="none" stroke="#000000" d="M 560 379 L 573 379 L 583 389 L 583 417 L 560 417 L 560 379 L 560 379"
                stroke-miterlimit="10" />
        </g>
        <g transform="translate(-262,-102) scale(1,1)">
            <path fill="none" stroke="#000000" d="M 573 379 L 573 389 L 583 389 L 573 379" stroke-miterlimit="10" />
        </g>
        <g transform="translate(-262,-102) scale(1,1)">
            <g>
                <path fill="none" stroke="none" /><text fill="#000000" stroke="none" font-family="Arial"
                    font-size="13px" font-style="normal" font-weight="normal" text-decoration="none" x="513.45458984375"
                    y="447">App.ipa</text>
            </g>
        </g>
        <g transform="translate(-262,-102) scale(1,1)">
            <g>
                <path fill="none" stroke="none" /><text fill="#000000" stroke="none" font-family="Arial"
                    font-size="13px" font-style="normal" font-weight="normal" text-decoration="none" x="335.28369140625"
                    y="447">App.abb</text>
            </g>
        </g>
        <g transform="translate(-262,-102) scale(1,1)">
            <path fill="#C0C0C0" stroke="none" d="M 831 137 L 1083 137 L 1083 557 L 831 557" opacity="0.2" />
        </g>
        <g transform="translate(-262,-102) scale(1,1)">
            <path fill="#C0C0C0" stroke="none" d="M 831 137 L 841 127 L 1093 127 L 1083 137" opacity="0.2" />
        </g>
        <g transform="translate(-262,-102) scale(1,1)">
            <path fill="#C0C0C0" stroke="none" d="M 1093 127 L 1083 137 L 1083 557 L 1093 547" opacity="0.2" />
        </g>
        <g transform="translate(-262,-102) scale(1,1)">
            <path fill="#ffffff" stroke="none" d="M 824 130 L 1076 130 L 1076 550 L 824 550" />
        </g>
        <g transform="translate(-262,-102) scale(1,1)">
            <path fill="#ffffff" stroke="none" d="M 824 130 L 834 120 L 1086 120 L 1076 130" />
        </g>
        <g transform="translate(-262,-102) scale(1,1)">
            <path fill="#ffffff" stroke="none" d="M 1086 120 L 1076 130 L 1076 550 L 1086 540" />
        </g>
        <g transform="translate(-262,-102) scale(1,1)">
            <path fill="none" stroke="#000000" d="M 824 130 L 1076 130 L 1076 550 L 824 550 L 824 130"
                stroke-miterlimit="10" />
        </g>
        <g transform="translate(-262,-102) scale(1,1)">
            <path fill="none" stroke="#000000" d="M 824 130 L 834 120 L 1086 120 L 1076 130 L 824 130"
                stroke-miterlimit="10" />
        </g>
        <g transform="translate(-262,-102) scale(1,1)">
            <path fill="none" stroke="#000000" d="M 1086 120 L 1076 130 L 1076 550 L 1086 540 L 1086 120"
                stroke-miterlimit="10" />
        </g>
        <g transform="translate(-262,-102) scale(1,1)">
            <g>
                <path fill="none" stroke="none" /><text fill="#000000" stroke="none" font-family="Arial"
                    font-size="13px" font-style="normal" font-weight="normal" text-decoration="none" x="927.73095703125"
                    y="146">«cloud»</text>
            </g>
        </g>
        <g transform="translate(-262,-102) scale(1,1)">
            <g>
                <path fill="none" stroke="none" /><text fill="#000000" stroke="none" font-family="Arial"
                    font-size="13px" font-style="normal" font-weight="bold" text-decoration="none" x="932.44091796875"
                    y="161">Azure</text>
                <path fill="none" stroke="#000000" d="M 968.55908203125 162.5 L 932.44091796875 162.5"
                    stroke-miterlimit="10" />
            </g>
        </g>
        <g transform="translate(-262,-102) scale(1,1)">
            <path fill="#C0C0C0" stroke="none" d="M 839 249 L 1059 249 L 1059 541 L 839 541" opacity="0.2" />
        </g>
        <g transform="translate(-262,-102) scale(1,1)">
            <path fill="#C0C0C0" stroke="none" d="M 839 249 L 849 239 L 1069 239 L 1059 249" opacity="0.2" />
        </g>
        <g transform="translate(-262,-102) scale(1,1)">
            <path fill="#C0C0C0" stroke="none" d="M 1069 239 L 1059 249 L 1059 541 L 1069 531" opacity="0.2" />
        </g>
        <g transform="translate(-262,-102) scale(1,1)">
            <path fill="#ffffff" stroke="none" d="M 832 242 L 1052 242 L 1052 534 L 832 534" />
        </g>
        <g transform="translate(-262,-102) scale(1,1)">
            <path fill="#ffffff" stroke="none" d="M 832 242 L 842 232 L 1062 232 L 1052 242" />
        </g>
        <g transform="translate(-262,-102) scale(1,1)">
            <path fill="#ffffff" stroke="none" d="M 1062 232 L 1052 242 L 1052 534 L 1062 524" />
        </g>
        <g transform="translate(-262,-102) scale(1,1)">
            <path fill="none" stroke="#000000" d="M 832 242 L 1052 242 L 1052 534 L 832 534 L 832 242"
                stroke-miterlimit="10" />
        </g>
        <g transform="translate(-262,-102) scale(1,1)">
            <path fill="none" stroke="#000000" d="M 832 242 L 842 232 L 1062 232 L 1052 242 L 832 242"
                stroke-miterlimit="10" />
        </g>
        <g transform="translate(-262,-102) scale(1,1)">
            <path fill="none" stroke="#000000" d="M 1062 232 L 1052 242 L 1052 534 L 1062 524 L 1062 232"
                stroke-miterlimit="10" />
        </g>
        <g transform="translate(-262,-102) scale(1,1)">
            <g>
                <path fill="none" stroke="none" /><text fill="#000000" stroke="none" font-family="Arial"
                    font-size="13px" font-style="normal" font-weight="normal" text-decoration="none" x="917.2109375"
                    y="256.5">«server»</text>
            </g>
        </g>
        <g transform="translate(-262,-102) scale(1,1)">
            <g>
                <path fill="none" stroke="none" /><text fill="#000000" stroke="none" font-family="Arial"
                    font-size="13px" font-style="normal" font-weight="bold" text-decoration="none" x="886.86279296875"
                    y="273">Validation Service</text>
                <path fill="none" stroke="#000000" d="M 998.13720703125 274.5 L 886.86279296875 274.5"
                    stroke-miterlimit="10" />
            </g>
        </g>
        <g transform="translate(-262,-102) scale(1,1)">
            <path fill="#C0C0C0" stroke="none" d="M 1215 129 L 1451 129 L 1451 557 L 1215 557" opacity="0.2" />
        </g>
        <g transform="translate(-262,-102) scale(1,1)">
            <path fill="#C0C0C0" stroke="none" d="M 1215 129 L 1225 119 L 1461 119 L 1451 129" opacity="0.2" />
        </g>
        <g transform="translate(-262,-102) scale(1,1)">
            <path fill="#C0C0C0" stroke="none" d="M 1461 119 L 1451 129 L 1451 557 L 1461 547" opacity="0.2" />
        </g>
        <g transform="translate(-262,-102) scale(1,1)">
            <path fill="#ffffff" stroke="none" d="M 1208 122 L 1444 122 L 1444 550 L 1208 550" />
        </g>
        <g transform="translate(-262,-102) scale(1,1)">
            <path fill="#ffffff" stroke="none" d="M 1208 122 L 1218 112 L 1454 112 L 1444 122" />
        </g>
        <g transform="translate(-262,-102) scale(1,1)">
            <path fill="#ffffff" stroke="none" d="M 1454 112 L 1444 122 L 1444 550 L 1454 540" />
        </g>
        <g transform="translate(-262,-102) scale(1,1)">
            <path fill="none" stroke="#000000" d="M 1208 122 L 1444 122 L 1444 550 L 1208 550 L 1208 122"
                stroke-miterlimit="10" />
        </g>
        <g transform="translate(-262,-102) scale(1,1)">
            <path fill="none" stroke="#000000" d="M 1208 122 L 1218 112 L 1454 112 L 1444 122 L 1208 122"
                stroke-miterlimit="10" />
        </g>
        <g transform="translate(-262,-102) scale(1,1)">
            <path fill="none" stroke="#000000" d="M 1454 112 L 1444 122 L 1444 550 L 1454 540 L 1454 112"
                stroke-miterlimit="10" />
        </g>
        <g transform="translate(-262,-102) scale(1,1)">
            <g>
                <path fill="none" stroke="none" /><text fill="#000000" stroke="none" font-family="Arial"
                    font-size="13px" font-style="normal" font-weight="normal" text-decoration="none"
                    x="1303.73095703125" y="138">«cloud»</text>
            </g>
        </g>
        <g transform="translate(-262,-102) scale(1,1)">
            <g>
                <path fill="none" stroke="none" /><text fill="#000000" stroke="none" font-family="Arial"
                    font-size="13px" font-style="normal" font-weight="bold" text-decoration="none" x="1312.41455078125"
                    y="153">GCP</text>
                <path fill="none" stroke="#000000" d="M 1340.58544921875 154.5 L 1312.41455078125 154.5"
                    stroke-miterlimit="10" />
            </g>
        </g>
        <g transform="translate(-262,-102) scale(1,1)">
            <path fill="#C0C0C0" stroke="none" d="M 1231 233 L 1428 233 L 1428 541 L 1231 541" opacity="0.2" />
        </g>
        <g transform="translate(-262,-102) scale(1,1)">
            <path fill="#C0C0C0" stroke="none" d="M 1231 233 L 1241 223 L 1438 223 L 1428 233" opacity="0.2" />
        </g>
        <g transform="translate(-262,-102) scale(1,1)">
            <path fill="#C0C0C0" stroke="none" d="M 1438 223 L 1428 233 L 1428 541 L 1438 531" opacity="0.2" />
        </g>
        <g transform="translate(-262,-102) scale(1,1)">
            <path fill="#ffffff" stroke="none" d="M 1224 226 L 1421 226 L 1421 534 L 1224 534" />
        </g>
        <g transform="translate(-262,-102) scale(1,1)">
            <path fill="#ffffff" stroke="none" d="M 1224 226 L 1234 216 L 1431 216 L 1421 226" />
        </g>
        <g transform="translate(-262,-102) scale(1,1)">
            <path fill="#ffffff" stroke="none" d="M 1431 216 L 1421 226 L 1421 534 L 1431 524" />
        </g>
        <g transform="translate(-262,-102) scale(1,1)">
            <path fill="none" stroke="#000000" d="M 1224 226 L 1421 226 L 1421 534 L 1224 534 L 1224 226"
                stroke-miterlimit="10" />
        </g>
        <g transform="translate(-262,-102) scale(1,1)">
            <path fill="none" stroke="#000000" d="M 1224 226 L 1234 216 L 1431 216 L 1421 226 L 1224 226"
                stroke-miterlimit="10" />
        </g>
        <g transform="translate(-262,-102) scale(1,1)">
            <path fill="none" stroke="#000000" d="M 1431 216 L 1421 226 L 1421 534 L 1431 524 L 1431 216"
                stroke-miterlimit="10" />
        </g>
        <g transform="translate(-262,-102) scale(1,1)">
            <g>
                <path fill="none" stroke="none" /><text fill="#000000" stroke="none" font-family="Arial"
                    font-size="13px" font-style="normal" font-weight="normal" text-decoration="none"
                    x="1289.024169921875" y="242">«database»</text>
            </g>
        </g>
        <g transform="translate(-262,-102) scale(1,1)">
            <g>
                <path fill="none" stroke="none" /><text fill="#000000" stroke="none" font-family="Arial"
                    font-size="13px" font-style="normal" font-weight="bold" text-decoration="none" x="1295.1845703125"
                    y="257">Firestore</text>
                <path fill="none" stroke="#000000" d="M 1350.8154296875 258.5 L 1295.1845703125 258.5"
                    stroke-miterlimit="10" />
            </g>
        </g>
        <g transform="translate(-262,-102) scale(1,1)">
            <path fill="none" stroke="#000000" d="M 656 353 L 824 353" stroke-miterlimit="10" />
        </g>
        <g transform="translate(-262,-102) scale(1,1)">
            <g>
                <path fill="none" stroke="none" /><text fill="#000000" stroke="none" font-family="Arial"
                    font-size="13px" font-style="normal" font-weight="normal" text-decoration="none" x="714.5"
                    y="343">+HTTPS</text>
            </g>
        </g>
        <g transform="translate(-262,-102) scale(1,1)">
            <path fill="none" stroke="#000000" d="M 1063 367 L 1208 367" stroke-miterlimit="10" />
        </g>
        <g transform="translate(-262,-102) scale(1,1)">
            <g>
                <path fill="none" stroke="none" /><text fill="#000000" stroke="none" font-family="Arial"
                    font-size="13px" font-style="normal" font-weight="normal" text-decoration="none" x="1109.5"
                    y="357">+HTTPS</text>
            </g>
        </g>
    </g>
</svg>